<?xml version="1.0" encoding="UTF-8" standalone="no"?>
<!-- Created with Inkscape (http://www.inkscape.org/) -->

<svg
   version="1.1"
   id="svg2"
   xml:space="preserve"
   width="440"
   height="440"
   viewBox="0 0 440 440"
   sodipodi:docname="logo.svg"
   inkscape:version="1.1.2 (0a00cf5339, 2022-02-04)"
   xmlns:inkscape="http://www.inkscape.org/namespaces/inkscape"
   xmlns:sodipodi="http://sodipodi.sourceforge.net/DTD/sodipodi-0.dtd"
   xmlns="http://www.w3.org/2000/svg"
   xmlns:svg="http://www.w3.org/2000/svg"><defs
     id="defs6" /><sodipodi:namedview
     id="namedview4"
     pagecolor="#ffffff"
     bordercolor="#666666"
     borderopacity="1.0"
     inkscape:pageshadow="2"
     inkscape:pageopacity="0.0"
     inkscape:pagecheckerboard="0"
     showgrid="false"
     inkscape:zoom="1.1670255"
     inkscape:cx="178.65933"
     inkscape:cy="141.81352"
     inkscape:window-width="1920"
     inkscape:window-height="1016"
     inkscape:window-x="0"
     inkscape:window-y="27"
     inkscape:window-maximized="1"
     inkscape:current-layer="g8" /><g
     id="g8"
     inkscape:groupmode="layer"
     inkscape:label="ink_ext_XXXXXX"
     transform="matrix(1.3333333,0,0,-1.3333333,0,84.413333)"><rect
       style="fill:#000000;fill-opacity:1;stroke-width:1.6465;stroke-dasharray:1.6465, 1.6465"
       id="rect895"
       width="330"
       height="330"
       x="-3.5527137e-14"
       y="-63.310001"
       transform="scale(1,-1)" /><g
       id="g10"
       transform="matrix(0.1,0,0,0.1,28.271504,-133.3435)"><path
         d="M 1372.22,125.527 1346,75.2461 h 36.55 z m -32.7,-62.7614 -12.64,-24.375 h -15.58 l 56.76,106.4254 h 14.03 l 22.98,-106.4254 h -14.8 l -5.09,24.375 h -45.66"
         style="fill:#ffffff;fill-opacity:1;fill-rule:nonzero;stroke:none"
         id="path12" /><path
         d="m 2313.66,47.668 c 5.56,0 10.19,1.0625 13.89,3.164 3.69,2.1094 6.42,4.8125 8.16,8.1055 1.75,3.2891 2.64,6.6797 2.64,10.1758 0,3.0859 -0.85,5.7305 -2.56,7.9375 -1.69,2.207 -4.6,4.3476 -8.71,6.3984 l -13.42,5.711 c -7.61,3.3906 -13.08,7.0937 -16.42,11.1058 -3.34,4.004 -5.01,8.894 -5.01,14.648 0,6.27 1.58,11.797 4.77,16.582 3.19,4.785 7.65,8.457 13.35,11.024 5.71,2.57 12.27,3.859 19.66,3.859 6.17,-0.098 11.57,-0.949 16.19,-2.539 4.63,-1.594 8.7,-3.996 12.2,-7.168 l -2.32,-14.348 c -7.91,7.188 -17.12,10.852 -27.61,10.949 -6.37,0 -11.59,-1.593 -15.65,-4.777 -4.07,-3.191 -6.09,-7.254 -6.09,-12.195 0,-2.774 1,-5.137 3,-7.09 2.01,-1.953 5.68,-4.16 11.02,-6.633 l 13.12,-5.8671 c 7.1,-3.4961 12.11,-7.2656 15.04,-11.3281 2.93,-4.0547 4.39,-8.918 4.39,-14.5703 0,-6.4766 -1.38,-12.4531 -4.16,-17.9023 -2.77,-5.4493 -7.25,-9.8907 -13.43,-13.3282 -6.16,-3.4492 -14.08,-5.1757 -23.75,-5.1757 -13.27,0 -23.7,3.3476 -31.3,10.0273 l 2.47,15.2656 c 9.14,-8.0195 19.32,-12.0312 30.53,-12.0312"
         style="fill:#ffffff;fill-opacity:1;fill-rule:nonzero;stroke:none"
         id="path14" /><path
         d="m 2387.94,97.5703 c -4.88,-4.2695 -8.2,-9.4336 -9.95,-15.5078 h 44.74 c 0.1,0.8281 0.14,1.9531 0.14,3.3984 0,5.7618 -1.53,10.2813 -4.62,13.5743 -3.08,3.2808 -7.45,4.9298 -13.11,4.9298 -6.57,0 -12.32,-2.137 -17.2,-6.3947 m 40.57,9.5587 c 5.09,-5.606 7.63,-12.879 7.63,-21.8165 0,-2.9883 -0.15,-5.457 -0.46,-7.4102 -0.31,-1.9648 -0.83,-4.2695 -1.54,-6.9335 h -58 c -0.3,-7.7149 1.69,-13.6641 6.01,-17.8243 4.33,-4.1601 10.19,-6.2382 17.6,-6.2382 5.13,0 9.82,0.6328 14.04,1.914 4.2,1.2891 8.36,3.2227 12.48,5.7891 l -1.85,-11.5625 c -7.91,-5.3516 -17.28,-8.0156 -28.07,-8.0156 -7.09,0 -13.24,1.5117 -18.43,4.5507 -5.19,3.0274 -9.16,7.2149 -11.87,12.5586 -2.73,5.3516 -4.1,11.3672 -4.1,18.0469 0,6.5898 1.65,13.3984 4.94,20.4414 3.29,7.0391 8.29,12.9451 14.96,17.7421 6.69,4.766 14.91,7.168 24.67,7.168 9.58,0 16.9,-2.805 21.99,-8.41"
         style="fill:#ffffff;fill-opacity:1;fill-rule:nonzero;stroke:none"
         id="path16" /><path
         d="m 2483.7,101.496 c -6.06,0 -11.2,-2.1796 -15.41,-6.5546 -4.22,-4.3633 -7.01,-10.7226 -8.34,-19.043 l -6.01,-38.1054 h -13.73 l 11.87,75.273 h 13.27 l -2,-12.793 c 6.17,8.84 13.58,13.254 22.2,13.254 2.17,0 4.17,-0.156 6.02,-0.461 l -1.85,-12.031 c -1.85,0.305 -3.85,0.461 -6.02,0.461"
         style="fill:#ffffff;fill-opacity:1;fill-rule:nonzero;stroke:none"
         id="path18" /><path
         d="m 2524.96,37.8047 h -12.8 l -17.89,75.2613 H 2508 l 12.79,-58.7574 31.31,58.7574 h 14.35 l -41.49,-75.2613"
         style="fill:#ffffff;fill-opacity:1;fill-rule:nonzero;stroke:none"
         id="path20" /><path
         d="m 2576.45,127.57 c -1.39,1.434 -2.08,3.231 -2.08,5.399 0,2.668 1.01,4.98 3.07,6.933 2.06,1.953 4.43,2.934 7.1,2.934 2.16,0 3.94,-0.727 5.32,-2.16 1.39,-1.438 2.08,-3.242 2.08,-5.403 0,-2.566 -1.03,-4.851 -3.08,-6.855 -2.05,-2.012 -4.42,-3.008 -7.1,-3.008 -2.15,0 -3.93,0.715 -5.31,2.16 m -1.62,-89.7653 h -13.73 l 11.57,75.2613 h 13.87 l -11.71,-75.2613"
         style="fill:#ffffff;fill-opacity:1;fill-rule:nonzero;stroke:none"
         id="path22" /><path
         d="m 2606.96,39.6484 c -5.03,3.0782 -9,7.2852 -11.87,12.5704 -2.88,5.3007 -4.32,11.1328 -4.32,17.5078 0,8.0195 1.83,15.5273 5.47,22.5195 3.65,6.9922 8.95,12.6169 15.89,16.8869 6.94,4.265 15.1,6.406 24.44,6.406 9.06,0 16.41,-2.266 22.06,-6.785 l -2.3,-14.0352 c -5.24,5.5472 -12.09,8.3282 -20.52,8.3282 -5.96,0 -11.29,-1.524 -15.96,-4.5509 -4.68,-3.0352 -8.31,-7.0195 -10.87,-11.9531 -2.58,-4.9414 -3.87,-10.2422 -3.87,-15.8867 0,-6.8946 1.95,-12.4727 5.87,-16.7383 3.9,-4.2696 9.26,-6.3985 16.03,-6.3985 4.22,0 8.44,0.7735 12.65,2.3164 4.22,1.5313 7.97,3.7969 11.27,6.7852 l -2.17,-14.1875 c -4,-2.6758 -8.02,-4.582 -12.03,-5.7148 -4,-1.1211 -8.27,-1.6875 -12.79,-1.6875 -6.28,0 -11.94,1.5429 -16.98,4.6171"
         style="fill:#ffffff;fill-opacity:1;fill-rule:nonzero;stroke:none"
         id="path24" /><path
         d="m 2686.37,97.5703 c -4.88,-4.2695 -8.2,-9.4336 -9.95,-15.5078 h 44.73 c 0.1,0.8281 0.15,1.9531 0.15,3.3984 0,5.7618 -1.53,10.2813 -4.62,13.5743 -3.09,3.2808 -7.46,4.9298 -13.11,4.9298 -6.59,0 -12.32,-2.137 -17.2,-6.3947 m 40.57,9.5587 c 5.08,-5.606 7.63,-12.879 7.63,-21.8165 0,-2.9883 -0.15,-5.457 -0.48,-7.4102 -0.29,-1.9648 -0.82,-4.2695 -1.52,-6.9335 h -58.01 c -0.29,-7.7149 1.7,-13.6641 6.02,-17.8243 4.31,-4.1601 10.18,-6.2382 17.59,-6.2382 5.14,0 9.82,0.6328 14.04,1.914 4.21,1.2891 8.37,3.2227 12.49,5.7891 l -1.86,-11.5625 c -7.91,-5.3516 -17.27,-8.0156 -28.06,-8.0156 -7.09,0 -13.26,1.5117 -18.43,4.5507 -5.2,3.0274 -9.16,7.2149 -11.89,12.5586 -2.72,5.3516 -4.08,11.3672 -4.08,18.0469 0,6.5898 1.63,13.3984 4.93,20.4414 3.3,7.0391 8.29,12.9451 14.96,17.7421 6.69,4.766 14.91,7.168 24.67,7.168 9.58,0 16.91,-2.805 22,-8.41"
         style="fill:#ffffff;fill-opacity:1;fill-rule:nonzero;stroke:none"
         id="path26" /><path
         d="m 1988.21,145.293 c -3.19,-20.957 -19.19,-20.957 -34.67,-20.957 h -8.8 l 6.17,39.125 c 0.37,2.371 2.41,4.109 4.81,4.109 h 4.04 c 10.52,0 20.49,0 25.61,-6.007 3.08,-3.583 4,-8.915 2.84,-16.27 m -6.73,54.668 h -58.37 c -4,0 -7.4,-2.898 -8.02,-6.856 l -23.6,-149.6675 c -0.47,-2.9492 1.81,-5.6133 4.81,-5.6133 h 29.95 c 2.78,0 5.17,2.0313 5.61,4.7852 l 6.69,42.4297 c 0.62,3.9453 4.01,6.8476 8,6.8476 h 18.48 c 38.44,0 60.64,18.6133 66.44,55.4883 2.6,16.133 0.1,28.797 -7.45,37.676 -8.31,9.754 -23.01,14.91 -42.54,14.91"
         style="fill:#ffffff;fill-opacity:1;fill-rule:nonzero;stroke:none"
         id="path28" /><path
         d="m 1571.89,145.293 c -3.19,-20.957 -19.19,-20.957 -34.67,-20.957 h -8.81 l 6.17,39.125 c 0.38,2.371 2.42,4.109 4.82,4.109 h 4.03 c 10.54,0 20.49,0 25.61,-6.007 3.08,-3.583 4.01,-8.915 2.85,-16.27 m -6.74,54.668 h -58.37 c -3.99,0 -7.39,-2.898 -8.01,-6.856 l -23.6,-149.6675 c -0.46,-2.9492 1.81,-5.6133 4.8,-5.6133 h 27.87 c 4,0 7.4,2.8985 8.01,6.8438 l 6.37,40.3711 c 0.62,3.9453 4.01,6.8476 8.01,6.8476 h 18.47 c 38.45,0 60.64,18.6133 66.45,55.4883 2.61,16.133 0.1,28.797 -7.45,37.676 -8.3,9.754 -23.02,14.91 -42.55,14.91"
         style="fill:#ffffff;fill-opacity:1;fill-rule:nonzero;stroke:none"
         id="path30" /><path
         d="m 1700.67,91.5625 c -2.71,-15.9766 -15.39,-26.6875 -31.56,-26.6875 -8.1,0 -14.59,2.6055 -18.77,7.5469 -4.13,4.8828 -5.69,11.8554 -4.37,19.6289 2.52,15.8202 15.4,26.8942 31.33,26.8942 7.93,0 14.37,-2.636 18.63,-7.617 4.28,-5.019 5.97,-12.0389 4.74,-19.7655 m 38.95,54.4065 h -27.95 c -2.39,0 -4.44,-1.75 -4.8,-4.114 l -1.23,-7.812 -1.96,2.836 c -6.06,8.777 -19.55,11.715 -33.01,11.715 -30.89,0 -57.27,-23.399 -62.4,-56.219 -2.67,-16.3789 1.12,-32.0117 10.4,-42.9414 8.54,-10.0391 20.71,-14.2188 35.21,-14.2188 24.89,0 38.69,15.9961 38.69,15.9961 l -1.25,-7.7617 c -0.46,-2.9609 1.83,-5.625 4.81,-5.625 h 25.18 c 3.98,0 7.37,2.8985 8.01,6.836 l 15.11,95.6838 c 0.45,2.957 -1.82,5.625 -4.81,5.625"
         style="fill:#ffffff;fill-opacity:1;fill-rule:nonzero;stroke:none"
         id="path32" /><path
         d="m 2116.98,91.5625 c -2.69,-15.9766 -15.38,-26.6875 -31.54,-26.6875 -8.1,0 -14.59,2.6055 -18.77,7.5469 -4.14,4.8828 -5.69,11.8554 -4.37,19.6289 2.51,15.8202 15.39,26.8942 31.31,26.8942 7.94,0 14.39,-2.636 18.65,-7.617 4.27,-5.019 5.95,-12.0389 4.72,-19.7655 m 38.96,54.4065 H 2128 c -2.4,0 -4.44,-1.75 -4.82,-4.114 l -1.23,-7.812 -1.95,2.836 c -6.05,8.777 -19.54,11.715 -33.02,11.715 -30.88,0 -57.25,-23.399 -62.39,-56.219 -2.66,-16.3789 1.12,-32.0117 10.41,-42.9414 8.53,-10.0391 20.69,-14.2188 35.2,-14.2188 24.9,0 38.7,15.9961 38.7,15.9961 l -1.25,-7.7617 c -0.46,-2.9609 1.82,-5.625 4.8,-5.625 h 25.18 c 3.98,0 7.38,2.8985 8.01,6.836 l 15.1,95.6838 c 0.47,2.957 -1.81,5.625 -4.8,5.625"
         style="fill:#ffffff;fill-opacity:1;fill-rule:nonzero;stroke:none"
         id="path34" /><path
         d="m 1888.48,145.969 h -28.1 c -2.67,0 -5.19,-1.328 -6.7,-3.567 l -38.75,-57.0661 -16.42,54.8401 c -1.04,3.437 -4.19,5.793 -7.78,5.793 h -27.61 c -3.34,0 -5.69,-3.281 -4.61,-6.438 l 30.93,-90.8005 -29.1,-41.05472 c -2.28,-3.22265 0.03,-7.67187375 3.98,-7.67187375 h 28.06 c 2.66,0 5.15,1.29687375 6.67,3.48437375 l 93.43,134.84372 c 2.24,3.223 -0.08,7.637 -4,7.637"
         style="fill:#ffffff;fill-opacity:1;fill-rule:nonzero;stroke:none"
         id="path36" /><path
         d="M 2188.89,195.852 2164.93,43.4375 c -0.48,-2.957 1.82,-5.6133 4.81,-5.6133 h 24.09 c 3.98,0 7.38,2.8906 8.01,6.836 l 23.62,149.6678 c 0.46,2.969 -1.82,5.633 -4.8,5.633 h -26.97 c -2.39,0 -4.43,-1.738 -4.8,-4.109"
         style="fill:#ffffff;fill-opacity:1;fill-rule:nonzero;stroke:none"
         id="path38" /><path
         d="m 88.9219,322.125 h 63.7541 c 49.215,0 73.824,16.223 73.824,47.539 0,30.754 -26.289,47.531 -77.738,47.531 H 88.9219 Z m 0,229.293 v -88.363 h 55.9301 c 41.941,0 63.753,15.664 63.753,44.183 0,29.082 -22.375,44.18 -64.316,44.18 z M 0,274.582 v 47.543 H 37.4727 V 551.418 H 0 v 47.539 h 149.879 c 68.789,0 110.734,-31.875 110.734,-87.246 0,-36.352 -21.25,-58.723 -48.093,-69.348 38.585,-10.629 65.992,-38.031 65.992,-75.496 0,-59.281 -45.86,-92.285 -120.801,-92.285 H 0"
         style="fill:#ffffff;fill-opacity:1;fill-rule:nonzero;stroke:none"
         id="path40" /><path
         d="m 550.324,443.484 c -5.597,19.012 -19.578,30.2 -38.031,30.2 -43.063,0 -83.887,-31.875 -83.887,-90.039 v -61.52 h 82.766 V 274.582 H 326.617 v 47.543 h 52.571 v 143.168 h -41.383 v 47.543 h 90.039 v -40.27 c 15.101,27.961 45.859,48.094 86.683,48.094 45.864,0 74.387,-26.289 82.774,-63.754 l -46.977,-13.422"
         style="fill:#ffffff;fill-opacity:1;fill-rule:nonzero;stroke:none"
         id="path42" /><path
         d="m 802,370.777 c -15.66,5.59 -39.152,10.071 -60.957,10.071 -31.32,0 -61.523,-10.071 -61.523,-38.594 0,-21.246 19.011,-31.32 45.3,-31.32 36.348,0 77.18,19.582 77.18,53.129 z m 0,42.504 v 13.418 c 0,33.563 -26.848,47.539 -55.93,47.539 -27.402,0 -50.894,-11.183 -69.906,-28.515 l -32.437,35.226 c 22.375,20.699 54.25,39.711 102.343,39.711 59.84,0 106.262,-31.879 106.262,-92.273 V 322.125 h 34.676 V 274.582 H 802 v 25.176 c -12.863,-20.703 -47.535,-33 -81.656,-33 -49.215,0 -91.715,25.168 -91.715,74.937 0,58.723 57.601,81.094 110.172,81.094 25.726,0 46.98,-5.035 63.199,-9.508"
         style="fill:#ffffff;fill-opacity:1;fill-rule:nonzero;stroke:none"
         id="path44" /><path
         d="m 1093.95,560.367 h -55.37 v 72.699 h 55.37 z m 91.72,-238.242 V 274.582 H 945.184 v 47.543 h 99.546 v 143.168 h -76.062 v 47.543 H 1093.95 V 322.125 h 91.72"
         style="fill:#ffffff;fill-opacity:1;fill-rule:nonzero;stroke:none"
         id="path46" /><path
         d="m 1244.96,322.125 h 36.35 v 143.168 h -34.12 v 47.543 h 82.78 V 482.07 c 14.53,23.493 44.73,38.59 81.64,38.59 53.14,0 91.16,-33.555 91.16,-87.801 V 322.125 h 36.35 v -47.543 h -123.59 v 47.543 h 38.03 v 97.309 c 0,41.386 -25.17,53.132 -48.1,53.132 -37.47,0 -74.94,-27.964 -74.94,-71.027 v -79.414 h 38.03 v -47.543 h -123.59 v 47.543"
         style="fill:#ffffff;fill-opacity:1;fill-rule:nonzero;stroke:none"
         id="path48" /><path
         d="m 1618.25,465.293 h -62.07 v 47.543 h 62.07 v 86.121 h 49.22 v -86.121 h 115.76 V 465.293 H 1667.47 V 365.188 c 0,-36.915 25.72,-52.012 55.36,-52.012 27.97,0 51.46,15.652 68.8,32.992 l 32.99,-34.109 c -21.81,-23.493 -55.36,-45.301 -101.79,-45.301 -59.83,0 -104.58,33 -104.58,96.75 v 101.785"
         style="fill:#ffffff;fill-opacity:1;fill-rule:nonzero;stroke:none"
         id="path50" /><path
         d="m 2093.08,443.484 c -5.6,19.012 -19.57,30.2 -38.03,30.2 -43.07,0 -83.9,-31.875 -83.9,-90.039 v -61.52 h 82.78 v -47.543 h -184.55 v 47.543 h 52.56 v 143.168 h -41.38 v 47.543 h 90.04 v -40.27 c 15.1,27.961 45.86,48.094 86.69,48.094 45.86,0 74.37,-26.289 82.77,-63.754 l -46.98,-13.422"
         style="fill:#ffffff;fill-opacity:1;fill-rule:nonzero;stroke:none"
         id="path52" /><path
         d="m 2225.64,418.313 h 146.52 c -7.28,34.117 -37.47,57.046 -71.03,57.046 -38.03,0 -67.11,-23.488 -75.49,-57.046 z m 198.53,-107.379 c -24.61,-25.719 -68.23,-44.176 -116.88,-44.176 -79.98,0 -135.9,53.687 -135.9,126.949 0,73.262 54.25,126.953 129.74,126.953 74.95,0 127.51,-57.605 127.51,-135.898 v -8.395 H 2223.4 c 8.38,-39.707 41.38,-63.75 84.44,-63.75 35.79,0 66.56,14.539 83.33,32.996 l 33,-34.679"
         style="fill:#ffffff;fill-opacity:1;fill-rule:nonzero;stroke:none"
         id="path54" /><path
         d="m 2531.56,418.313 h 146.53 c -7.28,34.117 -37.47,57.046 -71.03,57.046 -38.03,0 -67.12,-23.488 -75.5,-57.046 z M 2730.1,310.934 c -24.61,-25.719 -68.23,-44.176 -116.89,-44.176 -79.98,0 -135.9,53.687 -135.9,126.949 0,73.262 54.25,126.953 129.75,126.953 74.94,0 127.51,-57.605 127.51,-135.898 v -8.395 h -205.25 c 8.4,-39.707 41.38,-63.75 84.45,-63.75 35.79,0 66.55,14.539 83.33,32.996 l 33,-34.679"
         style="fill:#ffffff;fill-opacity:1;fill-rule:nonzero;stroke:none"
         id="path56" /></g></g></svg>
